# xmcd
#
# Track frame offsets: 
#        150
#        16597
#        34170
#        52666
#        71171
#        89259
#        110401
#        138109
#        151490
#        173594
#        195356
#        214416
#
# Disc length: 3060 seconds
#
# Revision: 0
# Processed by: cddbd v1.5.2PL0 Copyright (c) Steve Scherf et al.
# Submitted via: ExactAudioCopy v0.99pb4
#
DISCID=930bf20c
DTITLE=Mike Blakely - Any Sky
DYEAR=2004
DGENRE=Country
TTITLE0=Any Sky You're Under
TTITLE1=Hit The Highway
TTITLE2=San Antonio
TTITLE3=Musta Loved That Girl
TTITLE4=Raymond Was A Cowboy
TTITLE5=Cool Desert Rain
TTITLE6=Run With Me
TTITLE7=Get The Dodge Outa Hell
TTITLE8=Little Miss Deejay
TTITLE9=What Am I To You?
TTITLE10=Change My Ways
TTITLE11=The Last Of My Friends
EXTD=
EXTT0=
EXTT1=
EXTT2=
EXTT3=
EXTT4=
EXTT5=
EXTT6=
EXTT7=
EXTT8=
EXTT9=
EXTT10=
EXTT11=
PLAYORDER=
